# xmcd
#
# Track frame offsets:
#	150
#	24778
#	39074
#	61191
#	74903
#	92817
#	113419
#	130397
#	145123
#	162322
#	182379
#	195715
#	203790
#
# Disc length: 3009 seconds
#
# Revision: 1
# Processed by: cddbd v1.5.1PL0 Copyright (c) Steve Scherf et al.
# Submitted via: audiograbber 1.82.01
#
DISCID=aa0bbf0d
DTITLE=Wilco - 1998-09-12 - Clinton Lake State Park, Lawrence, KS
DYEAR=1900
DGENRE=
TTITLE0=Wilco - James Alley Blues
TTITLE1=Wilco - Forget The Flowers
TTITLE2=Wilco - California Stars
TTITLE3=Wilco - Hesitating Beauty
TTITLE4=Wilco - New Madrid
TTITLE5=Wilco - She's A Jar
TTITLE6=Wilco - Passenger Side
TTITLE7=Wilco - Christ For President
TTITLE8=Wilco - I'm Always In Love
TTITLE9=Wilco - I Got You (At The End Of The Century)
TTITLE10=Wilco - I Must Be High
TTITLE11=Wilco - Passenger Side
TTITLE12=Wilco - Casino Queen
EXTD=
EXTT0=
EXTT1=
EXTT2=
EXTT3=
EXTT4=
EXTT5=
EXTT6=
EXTT7=
EXTT8=
EXTT9=
EXTT10=
EXTT11=
EXTT12=
PLAYORDER=
